<svg width="13" height="14" fill="none" xmlns="http://www.w3.org/2000/svg"><path d="M11.265 3.82a.11.11 0 00-.109-.101H9.734a.547.547 0 01-.547-.547A3.175 3.175 0 006.016 0a3.175 3.175 0 00-3.172 3.172.547.547 0 01-.547.547H.875a.11.11 0 00-.11.1L0 13.883A.11.11 0 00.11 14h11.812a.11.11 0 00.109-.118L11.265 3.82zM3.72 3.172A2.3 2.3 0 016.016.875a2.3 2.3 0 012.296 2.297.547.547 0 01-.546.547h-3.5a.547.547 0 01-.547-.547zm-.438 3.61a1.096 1.096 0 01-1.094-1.095c0-.093.01-.184.03-.272.108-.47.627-.209.627.272a.438.438 0 00.875 0c0-.48.518-.74.626-.272.02.088.03.18.03.272 0 .604-.49 1.094-1.094 1.094zm5.469 0a1.096 1.096 0 01-1.094-1.095c0-.093.01-.184.03-.272.107-.47.626-.209.626.272a.438.438 0 00.875 0c0-.48.519-.74.626-.272.02.088.03.18.03.272 0 .604-.49 1.094-1.093 1.094z" fill="#59AAF1"/><path d="M11.265 3.82a.11.11 0 00-.109-.101H9.734a.547.547 0 01-.547-.547A3.175 3.175 0 006.016 0a3.175 3.175 0 00-3.172 3.172.547.547 0 01-.547.547H.875a.11.11 0 00-.11.1L0 13.883A.11.11 0 00.11 14h11.812a.11.11 0 00.109-.118L11.265 3.82zM3.72 3.172A2.3 2.3 0 016.016.875a2.3 2.3 0 012.296 2.297.547.547 0 01-.546.547h-3.5a.547.547 0 01-.547-.547zm-.438 3.61a1.096 1.096 0 01-1.094-1.095c0-.093.01-.184.03-.272.108-.47.627-.209.627.272a.438.438 0 00.875 0c0-.48.518-.74.626-.272.02.088.03.18.03.272 0 .604-.49 1.094-1.094 1.094zm5.469 0a1.096 1.096 0 01-1.094-1.095c0-.093.01-.184.03-.272.107-.47.626-.209.626.272a.438.438 0 00.875 0c0-.48.519-.74.626-.272.02.088.03.18.03.272 0 .604-.49 1.094-1.093 1.094z" fill="url(#paint0_linear)"/><path d="M11.265 3.82a.11.11 0 00-.109-.101H9.734a.547.547 0 01-.547-.547A3.175 3.175 0 006.016 0a3.175 3.175 0 00-3.172 3.172.547.547 0 01-.547.547H.875a.11.11 0 00-.11.1L0 13.883A.11.11 0 00.11 14h11.812a.11.11 0 00.109-.118L11.265 3.82zM3.72 3.172A2.3 2.3 0 016.016.875a2.3 2.3 0 012.296 2.297.547.547 0 01-.546.547h-3.5a.547.547 0 01-.547-.547zm-.438 3.61a1.096 1.096 0 01-1.094-1.095c0-.093.01-.184.03-.272.108-.47.627-.209.627.272a.438.438 0 00.875 0c0-.48.518-.74.626-.272.02.088.03.18.03.272 0 .604-.49 1.094-1.094 1.094zm5.469 0a1.096 1.096 0 01-1.094-1.095c0-.093.01-.184.03-.272.107-.47.626-.209.626.272a.438.438 0 00.875 0c0-.48.519-.74.626-.272.02.088.03.18.03.272 0 .604-.49 1.094-1.093 1.094z" fill="url(#paint1_linear)"/><defs><linearGradient id="paint0_linear" x1="6.016" y1="0" x2="6.016" y2="14" gradientUnits="userSpaceOnUse"><stop stop-color="#FE5626"/><stop offset="1" stop-color="#F23F0E"/></linearGradient><linearGradient id="paint1_linear" x1="6.223" y1="30.206" x2="-6.209" y2="26.787" gradientUnits="userSpaceOnUse"><stop stop-color="#F58656"/><stop offset="1" stop-color="#FE5626"/></linearGradient></defs></svg>